# xmcd
#
# Track frame offsets:
#	150
#	21583
#	38821
#	56115
#	79047
#	99311
#	117029
#	138299
#	153942
#	169498
#	194620
#	211078
#	231203
#	248052
#	261866
#	280229
#	295197
#	310815
#
# Disc length: 4310 seconds
#
# Revision: 2
# Processed by: cddbd v1.5.1PL2 Copyright (c) Steve Scherf et al.
# Submitted via: audiograbber 1.83.01
#
DISCID=0010d412
DTITLE=Warner Music - Winter Sampler 2005 - 2006
DYEAR=2005
DGENRE=Top 40
TTITLE0=Madonna - Sorry
TTITLE1=Fort Minor - Believe Me
TTITLE2=Hard - fi - Tied Up Too Tight
TTITLE3=Green Day - Wake Me Up When September Ends (lLive)
TTITLE4=Him - Killing Loneliness
TTITLE5=James Blunt - Goodbye My Lover
TTITLE6=David Gray - Hospital Food
TTITLE7=Darkness - One Way Ticket
TTITLE8=Simple plan - Welcome To My Life
TTITLE9=Deftones - No Ordinary Love
TTITLE10=Alanis Morissette - Crazy
TTITLE11=Groove da Praia - Miss You (Back 2 Remixes)
TTITLE12=Michael Buble With Laura Pusini - You' ll Never Find Another Love Like
TTITLE12=Mine
TTITLE13=Laura Pusini - La Prospettiva Di Me
TTITLE14=Craig David - Don' t Love You No More
TTITLE15=Amy Diamond - What' s In It For Me
TTITLE16=Arash - Temptation
TTITLE17=Crazy Frog - Popcorn
EXTD=
EXTT0=
EXTT1=
EXTT2=
EXTT3=
EXTT4=
EXTT5=
EXTT6=
EXTT7=
EXTT8=
EXTT9=
EXTT10=
EXTT11=
EXTT12=
EXTT13=
EXTT14=
EXTT15=
EXTT16=
EXTT17=
PLAYORDER=
